<svg width="44" height="44" viewBox="0 0 44 44" fill="none" xmlns="http://www.w3.org/2000/svg">
<path d="M43.1482 35.7821C42.5096 33.4375 41.3364 32.1526 38.9969 31.4299C36.8658 30.7146 30.2912 28.402 28.3896 27.6617C27.1017 30.0662 25.2122 32.4006 22 34.5807C18.7877 32.4006 16.8983 30.0662 15.6104 27.6617C13.7088 28.402 7.13412 30.7146 5.00304 31.4299C2.66354 32.1526 1.49041 33.4375 0.851771 35.7821C0.129231 38.4346 0 41.2638 0 44H44C44 41.2638 43.8708 38.4346 43.1482 35.7821ZM38.3159 39.2305H32.2339C31.965 39.2305 31.7072 39.1236 31.5171 38.9333C31.327 38.743 31.2202 38.4848 31.2202 38.2157C31.2202 37.9465 31.327 37.6884 31.5171 37.4981C31.7072 37.3078 31.965 37.2009 32.2339 37.2009H38.3159C38.5847 37.2009 38.8426 37.3078 39.0327 37.4981C39.2228 37.6884 39.3296 37.9465 39.3296 38.2157C39.3296 38.4848 39.2228 38.743 39.0327 38.9333C38.8426 39.1236 38.5847 39.2305 38.3159 39.2305Z" fill="#3B4551"/>
<path d="M16.0301 22.2379L16.032 22.2377L16.0322 22.2379C16.304 22.5819 16.6001 22.9059 16.9183 23.2074C16.925 23.2151 16.9322 23.2245 16.9388 23.2321C16.9482 23.2321 16.9482 23.2414 16.9576 23.2414C18.3388 24.4923 20.1353 25.1843 21.9979 25.1829L21.9989 25.1829L21.9996 25.1829L22.0006 25.1829L22.0016 25.1829C23.8643 25.1844 25.6609 24.4924 27.0423 23.2414C27.0517 23.2414 27.0517 23.2321 27.061 23.2321C27.0677 23.2245 27.0749 23.2151 27.0816 23.2074C27.3998 22.9059 27.6959 22.5819 27.9677 22.2379L27.9679 22.2377L27.9691 22.2379C29.375 22.5193 33.8345 22.6693 35.7644 21.103C36.0548 20.8686 31.9139 6.50911 30.3306 3.79853C29.7415 2.79166 28.9148 1.94471 27.923 1.33182C26.2366 0.300141 24.2224 0 22.2738 0H22.0864C22.0585 0.000802525 22.0281 0.00286207 22 0.00377822C21.9718 0.00286207 21.9414 0.000802525 21.9136 0H21.7262C19.7776 0 17.7633 0.300141 16.077 1.33182C15.0851 1.9447 14.2584 2.79165 13.6693 3.79854C12.086 6.50914 7.94507 20.8686 8.23548 21.103C10.1654 22.6694 14.6249 22.5193 16.0301 22.2379Z" fill="#3B4551"/>
</svg>
