<svg width="44" height="50" viewBox="0 0 44 50" fill="none" xmlns="http://www.w3.org/2000/svg">
<path d="M43.1471 38.5984C43.0274 37.8974 42.7448 37.2346 42.3223 36.6637C41.8998 36.0927 41.3492 35.6296 40.7151 35.3119C36.4864 33.1959 27.2068 30.0708 27.2068 30.0708V26.9963L27.4651 26.8007C29.2665 25.4176 30.4712 23.3943 30.8312 21.1471L30.8832 20.8195H31.135C31.8153 20.8191 32.48 20.6156 33.0445 20.2346C33.609 19.8537 34.0477 19.3127 34.3045 18.6806C34.6105 18.1258 34.7709 17.502 34.7708 16.8678C34.7708 16.4312 34.6881 15.9986 34.5271 15.593C34.4464 15.1494 34.2008 14.7532 33.8399 14.4845L32.9838 13.9628L33.1966 13.0304C34.7432 6.26503 29.5202 0.171316 22.5069 0.00341188C22.3363 0.000123306 22.1673 -0.00146347 22 0.00176957C21.8327 -0.00146347 21.6637 0.000123291 21.4931 0.00339996C14.4798 0.171315 9.25682 6.26503 10.8034 13.0304L11.0162 13.9628L10.1601 14.4845C9.79922 14.7532 9.55358 15.1494 9.47287 15.593C9.31184 15.9986 9.22915 16.4312 9.2292 16.8678C9.22904 17.502 9.38948 18.1258 9.69546 18.6806C9.95233 19.3127 10.391 19.8537 10.9555 20.2346C11.52 20.6155 12.1847 20.8191 12.865 20.8194H13.1168L13.1688 21.1471C13.5288 23.3943 14.7335 25.4176 16.5349 26.8007L16.7932 26.9963V30.0708C16.7932 30.0708 7.51366 33.1959 3.28488 35.3119C2.6508 35.6296 2.10021 36.0927 1.67769 36.6636C1.25517 37.2346 0.972611 37.8974 0.852897 38.5984C0.12833 42.8418 0 50 0 50H44C44 50 43.8717 42.8418 43.1471 38.5984Z" fill="#2D3E50"/>
</svg>
